<svg xmlns="http://www.w3.org/2000/svg" fill="#0f41fa" class="bi bi-database-x" viewBox="0 0 16 16" id="Database-X--Streamline-Bootstrap.svg" height="16" width="16"><desc>Database X Streamline Icon: https://streamlinehq.com</desc><path d="M11.2364 5.6198C11.5697 5.4704 11.8864 5.2864 12.1813 5.071V6.432C12.1813 6.7341 11.9587 7.1156 11.3942 7.4846C12.0163 7.4495 12.6392 7.5384 13.2267 7.746V3.296C13.2267 2.2433 12.312 1.4614 11.2364 0.9722C10.1137 0.4621 8.599 0.16 6.9547 0.16S3.7957 0.4621 2.673 0.9722C1.5973 1.4614 0.6827 2.2433 0.6827 3.296V12.704C0.6827 13.7566 1.5973 14.5386 2.673 15.0278C3.7957 15.5369 5.3104 15.84 6.9547 15.84C7.515 15.84 8.0606 15.8045 8.5802 15.7386C8.2538 15.4561 7.9678 15.13 7.7303 14.7696Q7.3498 14.7947 6.9547 14.7947C5.4243 14.7947 4.0633 14.5124 3.1058 14.0765C2.1001 13.6187 1.728 13.0939 1.728 12.704V11.343C2.0113 11.5541 2.3343 11.7381 2.673 11.8918C3.7957 12.4009 5.3104 12.704 6.9547 12.704H6.9829C6.9449 12.3566 6.9449 12.0061 6.9829 11.6587H6.9547C5.4243 11.6587 4.0633 11.3764 3.1058 10.9405C2.1001 10.4827 1.728 9.9579 1.728 9.568V8.207C2.0113 8.4181 2.3343 8.6021 2.673 8.7558C3.7957 9.2649 5.3104 9.568 6.9547 9.568Q7.3655 9.568 7.7638 9.5429C8.075 9.0836 8.465 8.683 8.9157 8.3596C8.3115 8.4641 7.6509 8.5227 6.9547 8.5227C5.4243 8.5227 4.0633 8.2404 3.1058 7.8045C2.1001 7.3467 1.728 6.8219 1.728 6.432V5.071C2.0113 5.2821 2.3343 5.4661 2.673 5.6198C3.7957 6.1299 5.3104 6.432 6.9547 6.432S10.1137 6.1299 11.2364 5.6198M1.728 3.296C1.728 2.905 2.1001 2.3813 3.1058 1.9235C4.0633 1.4886 5.4243 1.2053 6.9547 1.2053S9.8461 1.4876 10.8036 1.9235C11.8092 2.3813 12.1813 2.9061 12.1813 3.296C12.1813 3.6869 11.8092 4.2107 10.8036 4.6685C9.8461 5.1034 8.485 5.3867 6.9547 5.3867S4.0633 5.1044 3.1058 4.6685C2.1001 4.2107 1.728 3.6859 1.728 3.296" stroke-width="1"></path><path d="M11.6587 15.84C14.4751 15.8447 16.2404 12.7987 14.8362 10.3572C14.1824 9.2204 12.9701 8.5205 11.6587 8.5227C8.8422 8.5273 7.087 11.5791 8.4992 14.0159C9.1525 15.1431 10.3559 15.8378 11.6587 15.84M10.9834 10.7659L11.6587 11.4423L12.334 10.7659C12.6188 10.4811 13.1052 10.6114 13.2095 11.0005C13.2579 11.1811 13.2063 11.3738 13.0741 11.506L12.3977 12.1813L13.0741 12.8566C13.3589 13.1415 13.2286 13.6279 12.8395 13.7322C12.6589 13.7806 12.4662 13.7289 12.334 13.5967L11.6587 12.9204L10.9834 13.5967C10.6985 13.8816 10.2121 13.7513 10.1078 13.3621C10.0594 13.1815 10.1111 12.9888 10.2433 12.8566L10.9196 12.1813L10.2433 11.506C9.9584 11.2212 10.0887 10.7348 10.4779 10.6305C10.6585 10.5821 10.8512 10.6337 10.9834 10.7659" stroke-width="1"></path></svg>