<svg xmlns="http://www.w3.org/2000/svg" fill="none" viewBox="-0.75 -0.75 24 24" id="Manual-Book--Streamline-Core.svg" height="24" width="24"><desc>Manual Book Streamline Icon: https://streamlinehq.com</desc><g id="manual-book"><path id="vector" stroke="#0f41fa" stroke-linecap="round" stroke-linejoin="round" d="M8.839285714285714 6.51489107142857c0 -0.47679107142857136 0.14138035714285713 -0.9428785714285713 0.4062857142857143 -1.3393125 0.26488928571428566 -0.39644999999999997 0.6413946428571428 -0.7054392857142856 1.081880357142857 -0.8878982142857142 0.44050178571428567 -0.18245892857142856 0.9252160714285714 -0.2301910714285714 1.3928625 -0.13718571428571427 0.4676303571428571 0.09302142857142856 0.8971714285714284 0.3226178571428571 1.234317857142857 0.6597642857142857 0.3371464285714285 0.3371464285714285 0.5667428571428571 0.7666874999999999 0.6597642857142857 1.2343339285714285 0.09302142857142856 0.4676303571428571 0.045273214285714285 0.9523446428571428 -0.13718571428571427 1.3928464285714284 -0.18245892857142856 0.44050178571428567 -0.4914482142857142 0.8169910714285713 -0.8878821428571427 1.0818964285714285 -0.39644999999999997 0.26488928571428566 -0.8625375 0.40626964285714284 -1.3393285714285712 0.40626964285714284v0.8035714285714285" stroke-width="1.5"></path><g id="Group 14"><path id="vector_2" stroke="#0f41fa" stroke-linecap="round" stroke-linejoin="round" d="M11.249999999999998 13.043908928571428c-0.22189821428571427 0 -0.40178571428571425 -0.17988749999999998 -0.40178571428571425 -0.40178571428571425s0.17988749999999998 -0.40178571428571425 0.40178571428571425 -0.40178571428571425" stroke-width="1.5"></path><path id="vector_3" stroke="#0f41fa" stroke-linecap="round" stroke-linejoin="round" d="M11.249999999999998 13.043908928571428c0.22189821428571427 0 0.40178571428571425 -0.17988749999999998 0.40178571428571425 -0.40178571428571425s-0.17988749999999998 -0.40178571428571425 -0.40178571428571425 -0.40178571428571425" stroke-width="1.5"></path></g><path id="vector_4" stroke="#0f41fa" stroke-linecap="round" stroke-linejoin="round" d="M20.08928571428571 21.69642857142857H4.821428571428571c-0.6393535714285714 0 -1.2525428571428572 -0.2539285714285714 -1.7046321428571425 -0.7060178571428571C2.6647071428571425 20.53832142857143 2.4107142857142856 19.925035714285713 2.4107142857142856 19.285714285714285c0 -0.6393214285714285 0.25399285714285713 -1.2526071428571428 0.7060821428571428 -1.7046964285714283S4.182075 16.875 4.821428571428571 16.875h13.660714285714285c0.42621428571428566 0 0.8350714285714285 -0.16939285714285712 1.136410714285714 -0.4707321428571428S20.08928571428571 15.694103571428569 20.08928571428571 15.26785714285714v-12.857142857142856c0 -0.4262464285714285 -0.16939285714285712 -0.8350232142857141 -0.4707321428571428 -1.1364219642857143C19.317214285714286 0.9728951785714285 18.90835714285714 0.8035714285714285 18.482142857142854 0.8035714285714285H4.821428571428571c-0.6283767857142857 -0.00022339285714285712 -1.2320035714285713 0.24491892857142855 -1.6822928571428568 0.6832044642857142C2.688830357142857 1.9250678571428572 2.427476785714285 2.521848214285714 2.4107142857142856 3.1499999999999995v16.07142857142857" stroke-width="1.5"></path><path id="vector_5" stroke="#0f41fa" stroke-linecap="round" stroke-linejoin="round" d="M18.482142857142854 16.875v4.821428571428571" stroke-width="1.5"></path></g></svg>