<svg xmlns="http://www.w3.org/2000/svg" viewBox="0 0 26.12 26.12"><defs><style>.cls-1{fill:#0f41fa;}.cls-2{fill:none;stroke:#0f41fa;stroke-linecap:round;stroke-linejoin:round;stroke-width:1.5px;}</style></defs><g id="Layer_2" data-name="Layer 2"><g id="Layer_1-2" data-name="Layer 1"><path class="cls-1" d="M16.44,21.36a2.88,2.88,0,0,1-2.07-.86L5.62,11.76a2.93,2.93,0,0,1-.86-2.08h0V2.94A2.94,2.94,0,0,1,7.7,0h6.74a2.9,2.9,0,0,1,2.08.86L25.26,9.6a2.94,2.94,0,0,1,0,4.16L18.52,20.5A2.9,2.9,0,0,1,16.44,21.36ZM6.26,9.68a1.43,1.43,0,0,0,.42,1l8.75,8.74a1.44,1.44,0,0,0,2,0L24.2,12.7a1.44,1.44,0,0,0,0-2L15.46,1.92a1.43,1.43,0,0,0-1-.42H7.7A1.43,1.43,0,0,0,6.26,2.94Z"/><path class="cls-1" d="M20,18.15a7.3,7.3,0,0,1-3.46,2.19L12.7,24.2a1.44,1.44,0,0,1-2,0L1.92,15.46a1.43,1.43,0,0,1-.42-1V7.7A1.43,1.43,0,0,1,2.94,6.26H6a9.39,9.39,0,0,1,0-1.5h-3A2.94,2.94,0,0,0,0,7.7v6.74a2.94,2.94,0,0,0,.86,2.08l8.75,8.74a2.93,2.93,0,0,0,4.15,0l6.74-6.74a2.85,2.85,0,0,0,.67-1.06h0A8.46,8.46,0,0,1,20,18.15Z"/><line class="cls-2" x1="10.8" y1="5.88" x2="10.8" y2="5.88"/></g></g></svg>