<?xml version="1.0" encoding="UTF-8"?>
<svg id="Camada_1" data-name="Camada 1" xmlns="http://www.w3.org/2000/svg" version="1.1" viewBox="0 0 487 303">
  <defs>
    <style>
      .cls-1 {
        fill: #0f41fa;
        stroke-width: 0px;
      }
    </style>
  </defs>
  <g>
    <path class="cls-1" d="M78.6,147.8c0-2.1,0-4.6.5-8.6l31.5-7c-.9,5.1-1.4,10.7-1.4,15.8.2,15.5,5.9,25.7,16.7,25.7s16-10.4,16-31.6-4.2-34.3-20.7-34.3h-14.1v-25.4h12.7c14.8,0,20-11,20-29.5s-4.7-26.5-14.6-26.5-16.2,11.5-14.8,33.5l-29.6-3.5C79.8,17.9,99.3,0,127.8,0s45.6,16.1,45.6,46.6-11.3,40.7-28.7,45.8v1.6c20,4.3,32,19.5,32,47.9s-16.9,58.4-48.9,58.4-49.2-12.6-49.2-52.5Z"/>
    <path class="cls-1" d="M241.4,200.3c-29.6,0-51-22-51-86v-18.5C190.3,36.7,207,0,245.1,0s40.9,12,42.6,48.5l-28.9,4.8c.5-20.6-5.9-26.8-15.1-26.8-15.5,0-21.9,22.8-20.9,61.6,5.9-10.4,17.2-17.7,30.3-17.7,22.1,0,38.6,15.3,38.6,60.2s-20.7,69.6-50.3,69.6ZM257.1,135c0-30.8-5.6-39.1-15.3-39.1s-16.2,8.8-16.2,38.8,4.9,39.4,16,39.4,15.5-8.8,15.5-39.1Z"/>
    <path class="cls-1" d="M303.7,109v-18.2c0-56.2,17.6-90.8,53.4-90.8s53.4,34,53.4,91v17.9c0,56.5-17.4,91.3-53.4,91.3s-53.4-34.8-53.4-91.3ZM375.7,112.7v-25.4c0-40.7-4-60.8-18.6-60.8s-18.6,20.1-18.6,60.8v25.4c0,41,4,61.1,18.6,61.1s18.6-20.1,18.6-61.1Z"/>
  </g>
  <path class="cls-1" d="M423.8,26v-4.3C423.8,8.2,429.5,0,441.2,0s17.4,8.1,17.4,21.7v4.3c0,13.5-5.7,21.8-17.4,21.8s-17.4-8.3-17.4-21.8ZM447.2,26.9v-6.1c0-9.7-1.3-14.5-6.1-14.5s-6.1,4.8-6.1,14.5v6.1c0,9.8,1.3,14.6,6.1,14.6s6.1-4.8,6.1-14.6Z"/>
  <path class="cls-1" d="M243.5,276.6c-63.7,0-123.8-10.4-169.1-29.2C26.4,227.5,0,199.9,0,169.9s10.3-36.5,29.7-52.1c4.1-3.3,10.1-2.6,13.4,1.5,3.3,4.1,2.6,10.1-1.5,13.4-15,12-22.6,24.5-22.6,37.3,0,21.6,22.8,43.4,62.7,59.9,43.1,17.9,100.5,27.7,161.8,27.7s51.2-1.8,75.4-5.3c5.2-.7,10,2.9,10.8,8,.7,5.2-2.9,10-8,10.8-25.1,3.6-51.4,5.5-78.1,5.5Z"/>
  <path class="cls-1" d="M397.5,252.6c-3.9,0-7.5-2.4-8.9-6.3-1.8-4.9.8-10.4,5.7-12.2,46.2-16.8,73.7-40.8,73.7-64.2s-7-24.3-20.9-35.9c-4-3.4-4.6-9.4-1.2-13.4,3.4-4,9.4-4.6,13.4-1.2,18.2,15.2,27.8,32.6,27.8,50.5,0,32.7-30.6,61.9-86.2,82.1-1.1.4-2.2.6-3.2.6Z"/>
  <path class="cls-1" d="M299,303c-2.4,0-4.9-.9-6.7-2.8-3.7-3.7-3.7-9.7,0-13.4l25.5-25.5-24.6-24.6c-3.7-3.7-3.7-9.7,0-13.4,3.7-3.7,9.7-3.7,13.4,0l31.3,31.3c3.7,3.7,3.7,9.7,0,13.4l-32.2,32.2c-1.9,1.9-4.3,2.8-6.7,2.8Z"/>
</svg>