<?xml version="1.0" encoding="UTF-8"?>
<svg id="Camada_1" data-name="Camada 1" xmlns="http://www.w3.org/2000/svg" xmlns:xlink="http://www.w3.org/1999/xlink" version="1.1" viewBox="0 0 187 187">
  <defs>
    <style>
      .cls-1 {
        clip-path: url(#clippath);
      }

      .cls-2 {
        fill: none;
      }

      .cls-2, .cls-3 {
        stroke-width: 0px;
      }

      .cls-3 {
        fill: #0f41fa;
      }
    </style>
    <clipPath id="clippath">
      <rect class="cls-2" x="53.1" y="47" width="81.7" height="93.9"/>
    </clipPath>
  </defs>
  <g id="Grupo_3656" data-name="Grupo 3656">
    <rect id="Retângulo_2963" data-name="Retângulo 2963" class="cls-2" width="187" height="187"/>
    <g id="Grupo_3644" data-name="Grupo 3644">
      <g class="cls-1">
        <g id="Grupo_3643" data-name="Grupo 3643">
          <path id="Caminho_13187" data-name="Caminho 13187" class="cls-3" d="M134.1,69.9l-39.4-22.7c-.5-.3-1-.3-1.5,0l-39.4,22.7c-.5.3-.7.7-.7,1.3v45.5c0,.5.3,1,.7,1.3l39.4,22.7c.5.3,1,.3,1.5,0l39.4-22.7c.5-.3.7-.7.7-1.3v-45.5c0-.5-.3-1-.7-1.3M94,50.1l37.7,21.8-17.2,9.9c-.2-.2-.3-.5-.5-.7-2-2.7-5.2-4-9.6-4h-10.6v16.4l-4.5-2.6c0,0,0-.1.1-.2,1.2-1.7,1.7-3.7,1.7-5.7,0-1.3-.2-2.6-.7-3.8-.5-1.1-1.1-2-2-2.7-.9-.8-2-1.3-3.1-1.7-1.3-.4-2.6-.6-3.9-.6-1.4,0-2.8.2-4.1.6-1.2.4-2.3,1.1-3.2,2-.6.7-1.2,1.4-1.6,2.2l-16-9.3,37.7-21.8ZM109.2,93v4c0,1.6,0,3.3-.3,4.9-.1,1.2-.5,2.3-1,3.3-.4.8-1,1.4-1.8,1.9-.8.4-1.8.6-2.7.6h-2.5v-17.1l7.5-4.3c.6,2.2.8,4.4.8,6.6M101,89.6v-7.2h2.5c1.8,0,3.5.9,4.3,2.4.1.2.2.4.3.6l-7.1,4.1ZM83.8,87.7l-6.1-3.5c.4-2,1.4-3,3-3,.9,0,1.8.4,2.4,1.1.6,1.2.9,2.5.8,3.8,0,.5,0,1,0,1.5M56.1,115.8v-43l15.9,9.2c0,0,0,.1,0,.2-.5,1.5-.7,3.1-.6,4.7l6.3.7c0-.8,0-1.5,0-2.3l6,3.5c-.1.6-.4,1.1-.7,1.6-.8,1-2,1.6-3.3,1.5h-2.7v4.8h3c1.7,0,2.9.6,3.5,1.7.7,1.5,1,3.1.9,4.8,0,4-1.1,5.9-3.4,5.9-1,0-2.1-.4-2.6-1.3-.6-1.1-1-2.3-.9-3.5,0-1,0-2,.3-3l-6.7,1.3c0,.3,0,.6-.1.9v.7c0,1.6.2,3.2.9,4.7.5,1.2,1.3,2.2,2.4,3,1,.8,2.1,1.3,3.4,1.6,1.3.3,2.6.5,3.9.5,3.5,0,6.1-1,7.8-2.9,1.8-1.9,2.6-4.6,2.6-8.1.1-2.2-.5-4.4-1.8-6.2-1.3-1.5-3.1-2.5-5-2.8v-.3c1.4-.3,2.7-1,3.7-2l4.9,2.8v43l-37.5-21.6ZM94.5,137.4v-24.3h9.9c4.4,0,7.6-1.3,9.6-4,2-2.7,3-6.7,3-12v-4c0-4.4-.7-7.8-2-10.4l17-9.8v43l-37.5,21.6Z"/>
        </g>
      </g>
    </g>
  </g>
</svg>