<svg id="Grupo_3853" data-name="Grupo 3853" xmlns="http://www.w3.org/2000/svg" xmlns:xlink="http://www.w3.org/1999/xlink" width="197.777" height="45.06" viewBox="0 0 197.777 45.06">
  <defs>
    <clipPath id="clip-path">
      <rect id="Retângulo_301" data-name="Retângulo 301" width="197.777" height="45.06" fill="#0f41fa"/>
    </clipPath>
  </defs>
  <g id="Grupo_123" data-name="Grupo 123" clip-path="url(#clip-path)">
    <path id="Caminho_323" data-name="Caminho 323" d="M445.6,5.9a2.959,2.959,0,0,1-2.576-1.453,3.017,3.017,0,0,1,0-2.983,2.995,2.995,0,0,1,5.152,0,3.025,3.025,0,0,1,0,2.983A2.941,2.941,0,0,1,445.6,5.9m0-.724a2.137,2.137,0,0,0,1.117-.3,2.223,2.223,0,0,0-2.228-3.848,2.183,2.183,0,0,0-.795.8,2.32,2.32,0,0,0,0,2.246,2.179,2.179,0,0,0,.795.8,2.144,2.144,0,0,0,1.111.3m-1.188-3.77h1.407a1.3,1.3,0,0,1,.865.284.918.918,0,0,1,.336.736.887.887,0,0,1-.336.717,1.314,1.314,0,0,1-.865.278h-.555V4.509h-.853Zm.852,1.369h.5q.388,0,.388-.335t-.388-.336h-.5Zm.893,1.731-.66-1.29h.9l.672,1.292Z" transform="translate(-310.962 0)" fill="#0f41fa"/>
    <path id="Caminho_324" data-name="Caminho 324" d="M14.114,45.218a6.293,6.293,0,0,0-1.665-4.493l-.1-.1.1-.107a8.5,8.5,0,0,0,1.665-5.233v-6.7a5.781,5.781,0,0,0-6.485-6.15l-7.63.4V60.816l7.377-.365c4.093-.2,6.737-2.882,6.737-6.826ZM8.094,55.466l-2.075.1V43.648l2.075-.106Zm0-17.316-2.075.106V27.472l2.075-.108Z" transform="translate(0 -15.756)" fill="#0f41fa"/>
    <path id="Caminho_325" data-name="Caminho 325" d="M54.384,20.2V58.228L65.151,57.7V51.662L60.4,51.9V19.884Z" transform="translate(-38.207 -13.969)" fill="#0f41fa"/>
    <path id="Caminho_326" data-name="Caminho 326" d="M108.9,16.319l-6.02.317V49.767l-2.074.1V16.746l-6.02.317V48.819A5.807,5.807,0,0,0,101.273,55c4.093-.2,7.63-2.932,7.63-6.885Z" transform="translate(-66.591 -11.465)" fill="#0f41fa"/>
    <path id="Caminho_327" data-name="Caminho 327" d="M159.472,35.32V29.907l-4.431.228V19.754l4.431-.231V14.109l-10.45.551V52.778l10.766-.533V46.832l-4.746.237V35.546Z" transform="translate(-104.692 -9.912)" fill="#0f41fa"/>
    <path id="Caminho_328" data-name="Caminho 328" d="M203.9,18.613c0-3.9-2.606-6.386-6.485-6.181l-7.63.4V50.991l6.02-.3V36.6l1.357-.069c4.093-.207,6.737-2.9,6.737-6.865Zm-6.02,12.464-2.074.106V17.488l2.074-.108Z" transform="translate(-133.331 -8.725)" fill="#0f41fa"/>
    <path id="Caminho_329" data-name="Caminho 329" d="M256.832,47.552V32.561a6.354,6.354,0,0,0-1.665-4.521l-.1-.1.1-.108a6.8,6.8,0,0,0,1.665-4.628V15.83c0-3.907-2.606-6.395-6.485-6.19l-7.63.4V48.25l6.02-.3V30.978l2.074-.106V47.85Zm-8.094-22V14.7l2.074-.109V25.448Z" transform="translate(-170.516 -6.764)" fill="#0f41fa"/>
    <path id="Caminho_330" data-name="Caminho 330" d="M297.132,7.4V45.662l6.02-.3V7.084Z" transform="translate(-208.744 -4.977)" fill="#0f41fa"/>
    <path id="Caminho_331" data-name="Caminho 331" d="M392.76,1.534,380.117,2.2v5.44l3.311-.173v32.91l6.02-.3V7.153l3.311-.173Z" transform="translate(-267.043 -1.078)" fill="#0f41fa"/>
    <path id="Caminho_332" data-name="Caminho 332" d="M333.241,4.379v8.266l1.135,13.2-1.4.071L330,4.55l-5.734.3V43.14l6.02-.3V35.087l-1.317-14.9,1.394-.1,3.167,22.591,5.735-.284V4.062Z" transform="translate(-227.803 -2.854)" fill="#0f41fa"/>
    <path id="Caminho_333" data-name="Caminho 333" d="M448.335,57.1a4.23,4.23,0,0,1-2.987-.853,4.778,4.778,0,0,1-1.479-3.11l2.166-.664a3.588,3.588,0,0,0,.8,2.117,1.935,1.935,0,0,0,1.518.556,1.724,1.724,0,0,0,1.218-.5,1.774,1.774,0,0,0,.445-1.278,1.855,1.855,0,0,0-.135-.738,1.539,1.539,0,0,0-.425-.56,4.091,4.091,0,0,0-.745-.487q-.455-.239-1.092-.557a6.356,6.356,0,0,1-2.533-1.86,4.211,4.211,0,0,1-.754-2.545,4.156,4.156,0,0,1,.28-1.541,3.649,3.649,0,0,1,.8-1.237A3.891,3.891,0,0,1,446.691,43a4.988,4.988,0,0,1,1.7-.362,4.833,4.833,0,0,1,1.77.2,3.105,3.105,0,0,1,1.209.725,3.275,3.275,0,0,1,.744,1.154,6.735,6.735,0,0,1,.377,1.481l-2.185.7a4.765,4.765,0,0,0-.629-1.768,1.339,1.339,0,0,0-1.3-.556,1.4,1.4,0,0,0-1.054.476,1.587,1.587,0,0,0-.377,1.062,1.931,1.931,0,0,0,.1.643,1.5,1.5,0,0,0,.329.526,3.035,3.035,0,0,0,.6.484q.367.234.89.5.889.441,1.6.832a5.5,5.5,0,0,1,1.208.87,3.27,3.27,0,0,1,.754,1.114,4.118,4.118,0,0,1,.261,1.564,5.333,5.333,0,0,1-.27,1.724,3.761,3.761,0,0,1-2.156,2.327,5.444,5.444,0,0,1-1.924.411" transform="translate(-311.83 -29.949)" fill="#0f41fa"/>
    <path id="Caminho_334" data-name="Caminho 334" d="M477.538,53.8,479.8,53.7l.135,1.83.1,0a3.446,3.446,0,0,1,.938-1.5,2.464,2.464,0,0,1,1.615-.648,2.149,2.149,0,0,1,1.247.288,2.562,2.562,0,0,1,.889.953,5.021,5.021,0,0,1,.532,1.541,10.837,10.837,0,0,1,.174,2.031V59a8.487,8.487,0,0,1-.242,2.129,5.323,5.323,0,0,1-.657,1.569,3.088,3.088,0,0,1-.967.975,2.416,2.416,0,0,1-1.151.364,2.189,2.189,0,0,1-1.286-.306,2.75,2.75,0,0,1-.918-.961l-.1,0v4.6l-2.571.123Zm3.964,8.453a1.016,1.016,0,0,0,.87-.668,5.15,5.15,0,0,0,.309-2.088V57.959q0-2.834-1.2-2.777a1.075,1.075,0,0,0-.938.739,5.015,5.015,0,0,0-.319,2v1.851a3.616,3.616,0,0,0,.387,1.92,1.019,1.019,0,0,0,.889.565" transform="translate(-335.484 -37.492)" fill="#0f41fa"/>
    <path id="Caminho_335" data-name="Caminho 335" d="M514.9,59.337a6.008,6.008,0,0,1-.368,1.313,3.487,3.487,0,0,1-.676,1.067,3.319,3.319,0,0,1-1.015.735,3.659,3.659,0,0,1-1.4.319,3.932,3.932,0,0,1-1.624-.241,3.25,3.25,0,0,1-1.267-.877,4.065,4.065,0,0,1-.822-1.5,6.9,6.9,0,0,1-.29-2.1V57.2a7.169,7.169,0,0,1,.251-1.917,4.921,4.921,0,0,1,.744-1.592,3.958,3.958,0,0,1,1.209-1.1,3.566,3.566,0,0,1,1.663-.466,3.041,3.041,0,0,1,2.659,1.12,6.058,6.058,0,0,1,.977,3.83v.561l-4.737.227v.058a6.521,6.521,0,0,0,.319,2.339,1.089,1.089,0,0,0,1.151.742,1.13,1.13,0,0,0,1-.6,4.487,4.487,0,0,0,.454-1.554Zm-3.6-5.454a.932.932,0,0,0-.851.7,5.951,5.951,0,0,0-.251,1.984l2.127-.1a5.868,5.868,0,0,0-.242-2.038.77.77,0,0,0-.783-.543" transform="translate(-356.489 -36.614)" fill="#0f41fa"/>
    <path id="Caminho_336" data-name="Caminho 336" d="M539.735,61.4a3.548,3.548,0,0,1-1.518-.247A3.135,3.135,0,0,1,537,60.272a4.234,4.234,0,0,1-.8-1.508,7,7,0,0,1-.29-2.113v-.812a6.881,6.881,0,0,1,.3-2.112,4.709,4.709,0,0,1,.831-1.577,3.826,3.826,0,0,1,1.266-1.008,4,4,0,0,1,1.605-.406q3.017-.145,3.287,3.11l-1.914.671a3.236,3.236,0,0,0-.348-1.583.958.958,0,0,0-.908-.444,1.144,1.144,0,0,0-1.025.759,5.666,5.666,0,0,0-.328,2.222v1.283a5.065,5.065,0,0,0,.358,2.219,1.023,1.023,0,0,0,.976.653,1.074,1.074,0,0,0,.987-.632,4.975,4.975,0,0,0,.386-1.677l1.876.49a4.5,4.5,0,0,1-1.024,2.544,3.372,3.372,0,0,1-2.494,1.047" transform="translate(-376.49 -35.639)" fill="#0f41fa"/>
    <path id="Caminho_337" data-name="Caminho 337" d="M564.441,38.29l2.63-.126v2.475l-2.63.126Zm0,3.6,2.63-.126V52.028l-2.63.126Z" transform="translate(-396.536 -26.811)" fill="#0f41fa"/>
    <path id="Caminho_338" data-name="Caminho 338" d="M579.383,59.527a1.981,1.981,0,0,1-1.614-.571,2.66,2.66,0,0,1-.59-1.9,3.128,3.128,0,0,1,.2-1.189,2.93,2.93,0,0,1,.532-.857,3.749,3.749,0,0,1,.725-.625q.4-.261.783-.492.561-.352,1.093-.635t.938-.513V51.718q0-1.185-.928-1.141a.908.908,0,0,0-.812.493,3.731,3.731,0,0,0-.348,1.322l-1.953-.139a3.5,3.5,0,0,1,1.054-2.535,3.813,3.813,0,0,1,2.427-.919,3.311,3.311,0,0,1,2.407.6,2.79,2.79,0,0,1,.764,2.187V56.46q0,.851.271,1.051a.541.541,0,0,0,.28.141,1.536,1.536,0,0,0,.358.021v1.3a1.042,1.042,0,0,1-.232.127,2.483,2.483,0,0,1-.338.113,3.771,3.771,0,0,1-.377.076c-.129.019-.245.031-.348.036a1.872,1.872,0,0,1-1.324-.381,1.946,1.946,0,0,1-.571-1.461l-.1,0a2.474,2.474,0,0,1-2.3,2.044m1.1-1.716a.81.81,0,0,0,.745-.529,2.957,2.957,0,0,0,.222-1.2V54.265q-.213.126-.416.261l-.551.365a2.253,2.253,0,0,0-.6.647,2.2,2.2,0,0,0-.212,1.093,1.591,1.591,0,0,0,.2.928.669.669,0,0,0,.609.251" transform="translate(-405.485 -34.278)" fill="#0f41fa"/>
    <path id="Caminho_339" data-name="Caminho 339" d="M606.818,34.635l2.63-.126V48.856l-2.63.126Z" transform="translate(-426.308 -24.244)" fill="#0f41fa"/>
    <path id="Caminho_340" data-name="Caminho 340" d="M621.6,50.687a2.191,2.191,0,0,1-.7-.188,1.557,1.557,0,0,1-.745-.638,2.689,2.689,0,0,1-.28-1.392V42.484l-1.1.053V40.623l1.121-.054V37.591l2.591-.124v2.978l1.624-.078v1.914l-1.624.078V47.68q0,.732.387.926a1.2,1.2,0,0,0,.735.138l.58-.028V50.63l-1.567.075a6.42,6.42,0,0,1-1.024-.018" transform="translate(-434.71 -26.322)" fill="#0f41fa"/>
    <path id="Caminho_341" data-name="Caminho 341" d="M639.415,57.921q.309-.015.628-.059a3.287,3.287,0,0,0,.59-.134,1.477,1.477,0,0,0,.493-.333,1.187,1.187,0,0,0,.3-.633l.077-.332-2.9-10.186,2.649-.127,1.1,5.051.29,1.727.058,0,.367-1.758,1.179-5.161,2.166-.1-3,11.262q-.136.471-.281.845a3.121,3.121,0,0,1-.348.664,2.655,2.655,0,0,1-.474.516,2.723,2.723,0,0,1-.677.4,2.884,2.884,0,0,1-.928.238q-.58.066-1.3.1Z" transform="translate(-448.637 -32.224)" fill="#0f41fa"/>
    <path id="Caminho_342" data-name="Caminho 342" d="M446.989,117.6V103.752l4.428-.212a4.07,4.07,0,0,1,3.055.788,3.617,3.617,0,0,1,.947,2.758,4.255,4.255,0,0,1-.619,2.361,3.654,3.654,0,0,1-1.779,1.414l.019.174a2.209,2.209,0,0,1,.967,1.041,7.729,7.729,0,0,1,.6,1.951q.135.693.251,1.172t.222.8a3.094,3.094,0,0,0,.223.523,1.469,1.469,0,0,0,.271.356v.311l-3.017.145a2.793,2.793,0,0,1-.348-.839,11.154,11.154,0,0,1-.232-1.177q-.116-.676-.232-1.4t-.232-1.264a2.031,2.031,0,0,0-.3-.861.724.724,0,0,0-.629-.2l-.812.039v5.839Zm3.751-7.933a1.773,1.773,0,0,0,1.334-.545,2.562,2.562,0,0,0,.425-1.656,2.113,2.113,0,0,0-.4-1.5,1.588,1.588,0,0,0-1.228-.345l-1.1.053v4.041Z" transform="translate(-314.023 -72.733)" fill="#0f41fa"/>
    <path id="Caminho_343" data-name="Caminho 343" d="M484.807,120.779a6.015,6.015,0,0,1-.367,1.313,3.5,3.5,0,0,1-.677,1.067,3.314,3.314,0,0,1-1.015.735,3.666,3.666,0,0,1-1.4.319,3.928,3.928,0,0,1-1.624-.242,3.243,3.243,0,0,1-1.266-.877,4.061,4.061,0,0,1-.822-1.5,6.9,6.9,0,0,1-.29-2.1v-.85a7.166,7.166,0,0,1,.251-1.917,4.914,4.914,0,0,1,.744-1.593,3.96,3.96,0,0,1,1.208-1.1,3.566,3.566,0,0,1,1.663-.466,3.04,3.04,0,0,1,2.659,1.12,6.058,6.058,0,0,1,.977,3.83v.561l-4.737.227v.058a6.52,6.52,0,0,0,.319,2.339,1.089,1.089,0,0,0,1.15.742,1.13,1.13,0,0,0,1-.6,4.479,4.479,0,0,0,.454-1.554Zm-3.6-5.454a.932.932,0,0,0-.851.7,5.95,5.95,0,0,0-.251,1.984l2.127-.1a5.857,5.857,0,0,0-.242-2.038.77.77,0,0,0-.783-.543" transform="translate(-335.348 -79.779)" fill="#0f41fa"/>
    <path id="Caminho_344" data-name="Caminho 344" d="M506.657,112.379l2.4-.115.1,1.929.039,0a3.752,3.752,0,0,1,1.228-1.673,2.861,2.861,0,0,1,1.537-.586,1.754,1.754,0,0,1,1.586.582,2.631,2.631,0,0,1,.483,1.639v8.141l-2.61.125v-7.541a1.28,1.28,0,0,0-.174-.756.635.635,0,0,0-.58-.214,1.217,1.217,0,0,0-.977.676,3.078,3.078,0,0,0-.4,1.633v6.3l-2.63.126Z" transform="translate(-355.941 -78.633)" fill="#0f41fa"/>
    <path id="Caminho_345" data-name="Caminho 345" d="M537.3,114.725a2.192,2.192,0,0,1-.7-.188,1.558,1.558,0,0,1-.745-.638,2.693,2.693,0,0,1-.28-1.392v-5.986l-1.1.053v-1.914l1.121-.054v-2.978l2.591-.124v2.978l1.624-.078v1.914l-1.624.078v5.321q0,.732.387.926a1.2,1.2,0,0,0,.735.138l.58-.028v1.914l-1.566.075a6.422,6.422,0,0,1-1.024-.018" transform="translate(-375.486 -71.31)" fill="#0f41fa"/>
    <path id="Caminho_346" data-name="Caminho 346" d="M557.091,120.594a1.983,1.983,0,0,1-1.615-.571,2.662,2.662,0,0,1-.59-1.9,3.122,3.122,0,0,1,.2-1.189,2.919,2.919,0,0,1,.532-.857,3.747,3.747,0,0,1,.725-.625q.4-.261.783-.492.56-.351,1.092-.635t.938-.513v-1.031q0-1.185-.928-1.14a.909.909,0,0,0-.812.493,3.739,3.739,0,0,0-.348,1.322l-1.953-.139a3.5,3.5,0,0,1,1.054-2.535,3.813,3.813,0,0,1,2.427-.919,3.313,3.313,0,0,1,2.407.6,2.791,2.791,0,0,1,.764,2.187v4.872q0,.851.271,1.051a.541.541,0,0,0,.28.141,1.522,1.522,0,0,0,.358.022v1.3a1.042,1.042,0,0,1-.232.127,2.469,2.469,0,0,1-.339.113,3.692,3.692,0,0,1-.377.076c-.129.019-.245.031-.348.036a1.872,1.872,0,0,1-1.325-.381,1.945,1.945,0,0,1-.57-1.461l-.1,0a2.475,2.475,0,0,1-2.3,2.044m1.1-1.716a.809.809,0,0,0,.745-.529,2.955,2.955,0,0,0,.223-1.2v-1.818c-.142.084-.28.171-.416.261l-.551.365a2.245,2.245,0,0,0-.6.647,2.2,2.2,0,0,0-.212,1.093,1.592,1.592,0,0,0,.2.928.668.668,0,0,0,.609.251" transform="translate(-389.824 -77.18)" fill="#0f41fa"/>
    <path id="Caminho_347" data-name="Caminho 347" d="M584.527,95.7l2.629-.126v14.347l-2.629.126Z" transform="translate(-410.647 -67.145)" fill="#0f41fa"/>
    <path id="Caminho_348" data-name="Caminho 348" d="M599.8,118.556a4.312,4.312,0,0,1-1.421-.135,2.965,2.965,0,0,1-1.015-.512,2.7,2.7,0,0,1-.7-.827,5.3,5.3,0,0,1-.445-1.081l1.721-.759a2.723,2.723,0,0,0,.725,1.445,1.514,1.514,0,0,0,1.073.345,1.111,1.111,0,0,0,.812-.329,1.083,1.083,0,0,0,.271-.748,1.31,1.31,0,0,0-.068-.441.93.93,0,0,0-.242-.356,2.228,2.228,0,0,0-.493-.334q-.319-.168-.8-.377a5.276,5.276,0,0,1-1.915-1.262,2.983,2.983,0,0,1-.7-2.094,3.337,3.337,0,0,1,.232-1.268,2.822,2.822,0,0,1,.667-.989,3.193,3.193,0,0,1,1.044-.659,4.225,4.225,0,0,1,1.363-.278,3.7,3.7,0,0,1,1.3.141,2.575,2.575,0,0,1,.928.507,2.315,2.315,0,0,1,.59.8,4.315,4.315,0,0,1,.309,1.049l-1.663.582a2.271,2.271,0,0,0-.56-1.24,1.265,1.265,0,0,0-.928-.294,1.087,1.087,0,0,0-.686.284.972.972,0,0,0-.3.768,1.291,1.291,0,0,0,.077.47,1.006,1.006,0,0,0,.251.365,2.167,2.167,0,0,0,.474.325q.3.16.745.351.676.3,1.2.561a3.472,3.472,0,0,1,.87.606,2.3,2.3,0,0,1,.532.806,3.761,3.761,0,0,1-.725,3.612,3.749,3.749,0,0,1-2.533.963" transform="translate(-418.866 -75.796)" fill="#0f41fa"/>
  </g>
</svg>
