<?xml version="1.0" encoding="utf-8"?>
<!-- Generator: Adobe Illustrator 28.1.0, SVG Export Plug-In . SVG Version: 6.00 Build 0)  -->
<svg version="1.1" id="Componente_139_1" xmlns="http://www.w3.org/2000/svg" xmlns:xlink="http://www.w3.org/1999/xlink" x="0px"
	 y="0px" viewBox="0 0 448 506.7" style="enable-background:new 0 0 448 506.7;" xml:space="preserve">
<style type="text/css">
	.st0{fill:#FFFFFF;}
</style>
<path id="Caminho_13176" class="st0" d="M448,276.2c0-57.8-29.7-72.9-50.8-89c-16-11.8-41.2-23.7-41.2-45.8V58.4l23.4-1.1v70.1
	l67.7-3.3V69.2c0-43.7-35.7-71.3-79.3-69.1c-46,2.2-79.4,32.5-79.4,76.8v70.3c0,52.6,28.8,67.2,49.8,83.3
	c16,11.8,41.2,23.2,41.2,46.2v96.7l-23.4,1.1v-69.7l-67.7,3.2v54.5c0,43.6,35.7,71.3,79.4,69.3c46-2.1,79.4-32.3,79.4-76.7
	L448,276.2z"/>
</svg>
