<svg id="Grupo_119" data-name="Grupo 119" xmlns="http://www.w3.org/2000/svg" xmlns:xlink="http://www.w3.org/1999/xlink" width="240.57" height="45.063" viewBox="0 0 240.57 45.063">
  <defs>
    <clipPath id="clip-path">
      <rect id="Retângulo_299" data-name="Retângulo 299" width="240.57" height="45.063" fill="#1b40fa"/>
    </clipPath>
  </defs>
  <g id="Grupo_119-2" data-name="Grupo 119" clip-path="url(#clip-path)">
    <path id="Caminho_306" data-name="Caminho 306" d="M783.511,8.1a2.99,2.99,0,0,1-2.6-1.468,3.007,3.007,0,1,1,5.205,0,2.971,2.971,0,0,1-2.6,1.468m0-.731a2.159,2.159,0,0,0,1.129-.3,2.246,2.246,0,1,0-2.251-3.888,2.205,2.205,0,0,0-.8.809,2.343,2.343,0,0,0,0,2.27,2.2,2.2,0,0,0,.8.809,2.166,2.166,0,0,0,1.122.3m-1.2-3.809h1.422a1.31,1.31,0,0,1,.874.287.927.927,0,0,1,.34.744.9.9,0,0,1-.34.725,1.327,1.327,0,0,1-.874.28h-.561v1.1h-.861Zm.861,1.383h.508q.392,0,.392-.338t-.392-.34h-.509Zm.9,1.749-.667-1.3h.913l.679,1.3Z" transform="translate(-545.94 -1.492)" fill="#1b40fa"/>
    <path id="Caminho_307" data-name="Caminho 307" d="M456.013,43.539c0-5.189-2.67-6.546-4.559-7.992-1.439-1.058-3.7-2.13-3.7-4.112V23.986l2.1-.1v7.562l6.082-.292v-6.2c0-3.923-3.207-6.4-7.125-6.209-4.135.2-7.134,2.922-7.134,6.9v6.313c0,4.724,2.587,6.031,4.476,7.477,1.439,1.058,3.7,2.081,3.7,4.152v8.689l-2.1.1v-8.8l-6.082.286v7.433c0,3.918,3.209,6.4,7.127,6.224,4.135-.189,7.132-2.9,7.132-6.886Z" transform="translate(-308.933 -13.103)" fill="#1b40fa"/>
    <path id="Caminho_308" data-name="Caminho 308" d="M743.295,29.536c0-5.227-2.67-6.595-4.559-8.052-1.439-1.066-3.7-2.146-3.7-4.143v-7.5l2.1-.1v7.617l6.082-.292V10.814c0-3.952-3.207-6.45-7.125-6.257-4.135.2-7.134,2.941-7.134,6.95v6.359c0,4.759,2.587,6.076,4.476,7.533,1.439,1.066,3.7,2.1,3.7,4.183v8.752l-2.1.1V29.567l-6.082.286V37.34c0,3.947,3.209,6.452,7.127,6.272,4.135-.19,7.132-2.92,7.132-6.934Z" transform="translate(-509.877 -3.18)" fill="#1b40fa"/>
    <path id="Caminho_309" data-name="Caminho 309" d="M506.419,15.857l-12.773.627v5.451l3.345-.163V54.747l6.082-.279V21.477l3.346-.163Z" transform="translate(-345.289 -11.092)" fill="#1b40fa"/>
    <path id="Caminho_310" data-name="Caminho 310" d="M554.481,13.327l-6.082.3V47.1l-2.1.1V13.729l-6.082.3V46.113c0,3.928,3.535,6.406,7.453,6.226,4.135-.19,6.806-2.894,6.806-6.888Z" transform="translate(-377.866 -9.322)" fill="#1b40fa"/>
    <path id="Caminho_311" data-name="Caminho 311" d="M608.829,17.968c0-3.938-2.633-6.455-6.551-6.263l-7.708.378V50.6l7.453-.342c4.135-.19,6.806-2.9,6.806-6.9ZM602.748,45.2l-2.1.1V16.8l2.1-.1Z" transform="translate(-415.882 -8.18)" fill="#1b40fa"/>
    <path id="Caminho_312" data-name="Caminho 312" d="M648.955,9.623V48.19l6.082-.279V9.324Z" transform="translate(-453.922 -6.522)" fill="#1b40fa"/>
    <path id="Caminho_313" data-name="Caminho 313" d="M690.4,13.4c0-3.947-3.213-6.441-7.131-6.248-4.135.2-7.129,2.937-7.129,6.941v25.8c0,3.942,3.217,6.443,7.136,6.263,4.135-.189,7.124-2.916,7.124-6.925Zm-6.082,27.484-2.1.1V12.426l2.1-.1Z" transform="translate(-472.939 -4.996)" fill="#1b40fa"/>
    <path id="Caminho_314" data-name="Caminho 314" d="M14.259,43.919a6.358,6.358,0,0,0-1.682-4.539l-.1-.1.1-.108a8.59,8.59,0,0,0,1.682-5.287V27.119a5.841,5.841,0,0,0-6.551-6.214L0,21.312V59.677l7.453-.369c4.135-.2,6.806-2.912,6.806-6.9ZM8.178,54.272l-2.1.1V42.332l2.1-.107Zm0-17.494-2.1.108V25.99l2.1-.109Z" transform="translate(0 -14.614)" fill="#1b40fa"/>
    <path id="Caminho_315" data-name="Caminho 315" d="M54.384,18.671V57.089l10.877-.538v-6.1l-4.8.24V18.35Z" transform="translate(-38.04 -12.835)" fill="#1b40fa"/>
    <path id="Caminho_316" data-name="Caminho 316" d="M109.048,14.785l-6.082.321V48.578l-2.1.1V15.216l-6.082.321V47.62a5.866,5.866,0,0,0,6.551,6.243c4.135-.2,7.708-2.962,7.708-6.956Z" transform="translate(-66.301 -10.342)" fill="#1b40fa"/>
    <path id="Caminho_317" data-name="Caminho 317" d="M159.58,34V28.536l-4.476.23V18.278l4.476-.234V12.575l-10.558.557V51.642L159.9,51.1V45.635l-4.8.24V34.233Z" transform="translate(-104.236 -8.796)" fill="#1b40fa"/>
    <path id="Caminho_318" data-name="Caminho 318" d="M204.046,17.142c0-3.942-2.633-6.452-6.551-6.245l-7.708.406v38.55l6.082-.3V35.315l1.371-.07c4.135-.209,6.806-2.932,6.806-6.936Zm-6.082,12.592-2.1.107V16.006l2.1-.109Z" transform="translate(-132.75 -7.614)" fill="#1b40fa"/>
    <path id="Caminho_319" data-name="Caminho 319" d="M256.977,46.408V31.263A6.42,6.42,0,0,0,255.3,26.7l-.1-.1.1-.109a6.875,6.875,0,0,0,1.682-4.675V14.36c0-3.947-2.633-6.461-6.551-6.254l-7.708.407v38.6l6.082-.3V29.664l2.1-.107V46.709ZM248.8,24.184V13.222l2.1-.11V24.076Z" transform="translate(-169.773 -5.661)" fill="#1b40fa"/>
    <path id="Caminho_320" data-name="Caminho 320" d="M297.132,5.871V44.526l6.082-.3V5.55Z" transform="translate(-207.834 -3.882)" fill="#1b40fa"/>
    <path id="Caminho_321" data-name="Caminho 321" d="M392.89,0,380.117.673v5.5l3.346-.175V39.244l6.082-.3V5.677L392.89,5.5Z" transform="translate(-265.879 0)" fill="#1b40fa"/>
    <path id="Caminho_322" data-name="Caminho 322" d="M333.333,2.848V11.2l1.147,13.333-1.418.072L330.055,3.021l-5.793.306V42.008l6.082-.3V33.873l-1.33-15.054,1.408-.1,3.2,22.823,5.794-.287V2.528Z" transform="translate(-226.81 -1.768)" fill="#1b40fa"/>
  </g>
</svg>
