<?xml version="1.0" encoding="UTF-8"?>
<svg id="Componente_139_1" data-name="Componente 139 1" xmlns="http://www.w3.org/2000/svg" version="1.1" viewBox="0 0 448 506.7">
  <defs>
    <style>
      .cls-1 {
        fill: #87c3e7;
      }

      .cls-1, .cls-2 {
        stroke-width: 0px;
      }

      .cls-2 {
        fill: #fff;
      }
    </style>
  </defs>
  <path id="Caminho_13177" data-name="Caminho 13177" class="cls-1" d="M306.2,40.3c-15.5-14.7-36.8-21.9-61.4-20.6l-97,5.1v452.7l91.2-4.5v-158.4l4.1-.2c25.6-1.3,47.4-10.4,63-26.3,15.7-16,24-37.7,24-62.7v-124.3c0-24.9-8.3-45.9-23.9-60.8"/>
  <path id="Caminho_13178" data-name="Caminho 13178" class="cls-2" d="M318.3,101.1c0-43.9-29.3-71.8-72.9-69.5l-85.8,4.5v429.2l67.7-3.3v-158.6l15.3-.8c46-2.3,75.8-32.6,75.8-77.2v-124.3ZM250.6,241.3l-23.4,1.2V88.5l23.4-1.2v154Z"/>
</svg>