<?xml version="1.0" encoding="utf-8"?>
<!-- Generator: Adobe Illustrator 28.1.0, SVG Export Plug-In . SVG Version: 6.00 Build 0)  -->
<svg version="1.1" id="Componente_139_1" xmlns="http://www.w3.org/2000/svg" xmlns:xlink="http://www.w3.org/1999/xlink" x="0px"
	 y="0px" viewBox="0 0 448 506.7" style="enable-background:new 0 0 448 506.7;" xml:space="preserve">
<style type="text/css">
	.st0{fill:#1B40FA;}
	.st1{fill:#FFFFFF;}
</style>
<path id="Caminho_13179" class="st0" d="M182.3,207.1v-74.8c2.8-42.3-29.3-78.9-71.6-81.7c-4.7-0.3-9.5-0.2-14.2,0.4L0,56.1v450.7
	l95.3-4.7c25.6-1.2,47.4-10.3,63-26.1c15.7-15.9,24-37.5,24-62.5v-94.3c0.7-18.9-5.2-37.4-16.6-52.5
	C176.9,248.8,182.7,228.1,182.3,207.1"/>
<path id="Caminho_13180" class="st1" d="M170.5,318.9c0.7-18.7-6.1-36.8-18.7-50.5l-1.1-1.1l1.1-1.2c12.6-17,19.2-37.7,18.7-58.9
	v-75.3c2.6-35.8-24.4-67-60.2-69.5c-4.2-0.3-8.5-0.2-12.7,0.3l-85.8,4.5v427.2l83-4.1c46-2.2,75.8-32.4,75.8-76.8L170.5,318.9z
	 M102.8,434.2l-23.4,1.1V301.3l23.4-1.2V434.2z M102.8,239.4l-23.4,1.2V119.3l23.4-1.2V239.4z"/>
</svg>
