<?xml version="1.0" encoding="UTF-8"?>
<svg id="Componente_139_1" data-name="Componente 139 1" xmlns="http://www.w3.org/2000/svg" version="1.1" viewBox="0 0 448 506.7">
  <defs>
    <style>
      .cls-1 {
        fill: #87c3e7;
      }

      .cls-1, .cls-2 {
        stroke-width: 0px;
      }

      .cls-2 {
        fill: #fff;
      }
    </style>
  </defs>
  <path id="Caminho_13179" data-name="Caminho 13179" class="cls-1" d="M182.3,207.1v-74.8c2.8-42.3-29.3-78.9-71.6-81.7-4.7-.3-9.5-.2-14.2.4L0,56.1v450.7l95.3-4.7c25.6-1.2,47.4-10.3,63-26.1,15.7-15.9,24-37.5,24-62.5v-94.3c.7-18.9-5.2-37.4-16.6-52.5,11.2-17.9,17-38.6,16.6-59.6"/>
  <path id="Caminho_13180" data-name="Caminho 13180" class="cls-2" d="M170.5,318.9c.7-18.7-6.1-36.8-18.7-50.5l-1.1-1.1,1.1-1.2c12.6-17,19.2-37.7,18.7-58.9v-75.3c2.6-35.8-24.4-67-60.2-69.5-4.2-.3-8.5-.2-12.7.3l-85.8,4.5v427.2l83-4.1c46-2.2,75.8-32.4,75.8-76.8v-94.6ZM102.8,434.2l-23.4,1.1v-134l23.4-1.2v134.1ZM102.8,239.4l-23.4,1.2v-121.3l23.4-1.2v121.3Z"/>
</svg>