<svg id="Componente_139_1" data-name="Componente 139 – 1" xmlns="http://www.w3.org/2000/svg" width="447.991" height="506.738" viewBox="0 0 447.991 506.738">
  <path id="Caminho_13176" data-name="Caminho 13176" d="M772.354,276.156c0-57.776-29.729-72.885-50.761-88.985-16.022-11.78-41.2-23.716-41.2-45.784V58.448l23.382-1.113v70.079l67.718-3.251V69.249c0-43.68-35.707-71.259-79.332-69.133-46.04,2.227-79.432,32.535-79.432,76.827v70.29c0,52.6,28.8,67.151,49.837,83.251,16.022,11.78,41.2,23.17,41.2,46.229v96.746l-23.382,1.113V304.828l-67.718,3.184v54.524c0,43.624,35.73,71.259,79.354,69.3,46.041-2.1,79.41-32.29,79.41-76.67Z" transform="translate(-324.363 -0.001)" fill="#fff"/>
  <path id="Caminho_13177" data-name="Caminho 13177" d="M472.423,62.424c-15.55-14.75-36.791-21.859-61.439-20.556l-96.968,5.108V499.722l91.247-4.5V336.672l4.094-.209c25.59-1.293,47.36-10.38,62.959-26.278,15.7-16,23.992-37.678,23.992-62.7V123.15c0-24.905-8.259-45.9-23.885-60.726" transform="translate(-166.25 -22.087)" fill="#1b40fa"/>
  <path id="Caminho_13178" data-name="Caminho 13178" d="M497.779,136.39c0-43.891-29.316-71.838-72.94-69.533l-85.823,4.52V500.6l67.718-3.341V338.733L422,337.954c46.04-2.327,75.78-32.646,75.78-77.227Zm-67.718,140.2-23.382,1.191V123.742l23.382-1.214Z" transform="translate(-179.484 -35.326)" fill="#fff"/>
  <path id="Caminho_13179" data-name="Caminho 13179" d="M182.292,263.8V188.991a76.8,76.8,0,0,0-85.73-81.319L0,112.771V563.457l95.316-4.719c25.584-1.238,47.357-10.258,62.964-26.088,15.709-15.932,24.012-37.541,24.012-62.489V375.842a81.969,81.969,0,0,0-16.633-52.492A108.029,108.029,0,0,0,182.292,263.8" transform="translate(0 -56.719)" fill="#1b40fa"/>
  <path id="Caminho_13180" data-name="Caminho 13180" d="M183.763,388.878a70.792,70.792,0,0,0-18.728-50.539l-1.114-1.113,1.114-1.2a95.646,95.646,0,0,0,18.728-58.867V201.822a65.036,65.036,0,0,0-72.941-69.188L25,137.166V564.331l82.984-4.109c46.04-2.227,75.78-32.423,75.78-76.826ZM116.056,504.151l-23.382,1.113V371.207l23.382-1.191Zm0-194.783-23.382,1.2V189.252l23.382-1.214Z" transform="translate(-13.234 -69.954)" fill="#fff"/>
</svg>
