<?xml version="1.0" encoding="utf-8"?>
<!-- Generator: Adobe Illustrator 28.1.0, SVG Export Plug-In . SVG Version: 6.00 Build 0)  -->
<svg version="1.1" id="Componente_139_1" xmlns="http://www.w3.org/2000/svg" xmlns:xlink="http://www.w3.org/1999/xlink" x="0px"
	 y="0px" viewBox="0 0 448 506.7" style="enable-background:new 0 0 448 506.7;" xml:space="preserve">
<style type="text/css">
	.st0{fill:#1B40FA;}
	.st1{fill:#FFFFFF;}
</style>
<path id="Caminho_13177" class="st0" d="M306.2,40.3c-15.5-14.7-36.8-21.9-61.4-20.6l-97,5.1v452.7l91.2-4.5V314.6l4.1-0.2
	c25.6-1.3,47.4-10.4,63-26.3c15.7-16,24-37.7,24-62.7V101.1C330.1,76.2,321.8,55.2,306.2,40.3"/>
<path id="Caminho_13178" class="st1" d="M318.3,101.1c0-43.9-29.3-71.8-72.9-69.5l-85.8,4.5v429.2l67.7-3.3V303.4l15.3-0.8
	c46-2.3,75.8-32.6,75.8-77.2L318.3,101.1z M250.6,241.3l-23.4,1.2v-154l23.4-1.2V241.3z"/>
</svg>
